<svg width="500" height="500" viewBox="0 0 500 500" fill="none" xmlns="http://www.w3.org/2000/svg">
<g clip-path="url(#clip0_1774_583)">
<path d="M231.445 0C245.605 0 257.812 0 272.461 0C390.536 9.13147 493.314 112.373 500 231.445C500 244.629 500 255.859 500 269.531C490.616 391.141 388.303 493.134 265.625 500H234.375C114.386 490.732 6.94428 393.768 0 269.531C0 256.348 0 245.117 0 231.445C6.84502 109.193 111.725 9.24899 231.445 0ZM174.805 101.562C160.825 102.539 148.321 108.123 138.379 113.477C39.0188 166.978 82.7608 313.515 194.824 307.617C317.906 301.139 327.14 101.562 174.805 101.562ZM346.68 273.438C336.763 274.414 326.212 279.22 320.508 283.887C269.578 325.557 295.354 401.679 356.934 398.438C439.488 394.093 435.838 273.438 346.68 273.438Z" fill="url(#paint0_linear_1774_583)"/>
</g>
<defs>
<linearGradient id="paint0_linear_1774_583" x1="255.205" y1="499.023" x2="255.205" y2="-1.27807e-06" gradientUnits="userSpaceOnUse">
<stop stop-color="#EBD66D"/>
<stop offset="0.36" stop-color="#F4A793"/>
<stop offset="0.68" stop-color="#A37AB2"/>
<stop offset="1" stop-color="#0195BE"/>
</linearGradient>
<clipPath id="clip0_1774_583">
<rect width="500" height="500" fill="white"/>
</clipPath>
</defs>
</svg>
