<svg width="239" height="390" viewBox="0 0 239 390" fill="none" xmlns="http://www.w3.org/2000/svg">
<path fill-rule="evenodd" clip-rule="evenodd" d="M224.126 383.73C218.883 387.307 212.548 389.463 205.687 389.463H33.6404C26.779 389.463 20.4444 387.307 15.2017 383.73C9.71239 379.983 5.42837 374.636 3.01237 368.555C1.00704 363.507 0.188374 357.959 0.636374 352.618C1.08037 347.334 2.75104 342.162 5.72571 337.743L53.335 266.992C53.3764 266.926 53.4164 266.86 53.459 266.795C61.6244 254.54 68.3804 243.282 73.199 232.384C77.887 221.783 80.7377 211.528 81.263 201.004L81.283 167.219L81.303 134.832C80.3497 134.187 79.4617 133.452 78.651 132.642C75.3937 129.384 73.3724 124.884 73.3724 119.931C73.3724 114.978 75.3937 110.479 78.651 107.222C81.9084 103.963 86.4084 101.942 91.3617 101.942H147.966C152.919 101.942 157.419 103.963 160.676 107.222C163.934 110.479 165.956 114.978 165.956 119.931C165.956 124.884 163.934 129.384 160.676 132.642C159.866 133.452 158.978 134.187 158.024 134.832L158.044 167.219L158.066 201.002V201.004C158.59 211.528 161.44 221.783 166.128 232.384C170.947 243.282 177.703 254.54 185.868 266.795L185.863 266.799L233.602 337.743C236.576 342.162 238.247 347.334 238.691 352.618C239.139 357.959 238.32 363.507 236.316 368.555C233.9 374.636 229.615 379.983 224.126 383.73Z" fill="white"/>
<path d="M91.4025 101.785C86.4478 101.785 81.9465 103.809 78.6878 107.068C75.4278 110.328 73.4051 114.828 73.4051 119.784C73.4051 124.74 75.4278 129.24 78.6878 132.5C79.4985 133.31 80.3865 134.045 81.3398 134.69L81.3198 167.093L81.2998 200.895C80.7758 211.423 77.9226 221.681 73.2319 232.288C71.0773 237.164 68.5132 242.117 65.6318 247.194C68.4305 247.336 71.9518 247.532 71.9518 247.532L72.0999 248.308C70.3653 250.192 69.3065 252.706 69.3065 255.468C69.3065 259.648 71.7319 263.261 75.2533 264.98L75.3185 265.325C68.0065 270.606 51.7732 275.201 46.9079 276.501L5.72786 337.695C2.7532 342.117 1.08121 347.291 0.637205 352.576C0.187872 357.921 1.00652 363.47 3.01318 368.521C5.42918 374.605 9.71715 379.955 15.2091 383.703C20.4531 387.281 26.7919 389.438 33.6559 389.438H205.783C212.645 389.438 218.983 387.281 224.228 383.703C228.241 380.964 231.6 377.365 234.067 373.256C224.465 368.696 213.565 363.665 208.288 361.747C208.288 361.747 195.304 353.089 185.685 356.457C185.685 356.457 172.031 359.845 166.929 362.228C160.213 365.362 157.793 367.517 137.596 366.554L148.174 363.189C148.174 363.189 150.099 362.708 149.617 361.265C149.137 359.823 147.694 360.302 147.694 360.302C147.694 360.302 139.037 363.189 131.825 365.112C131.825 365.112 127.089 366.441 117.879 365.593C113.391 365.18 100.085 365.112 100.085 362.708C100.085 362.708 101.532 355.901 111.145 356.457C117.031 356.796 125.573 358.86 134.709 355.495C134.709 355.495 162.121 347.8 169.334 338.182C169.334 338.182 164.045 334.335 156.831 335.777C156.831 335.777 137.115 338.182 137.115 329.045C137.115 329.045 137.596 324.236 152.984 326.64C152.984 326.64 159.236 328.082 170.297 326.16C170.297 326.16 186.647 322.793 199.151 331.449C199.151 331.449 207.807 338.183 233.295 347.8L238.217 348.557C237.414 344.696 235.924 340.987 233.709 337.695L185.948 266.718V266.714C177.779 254.454 171.02 243.192 166.2 232.288C161.508 221.681 158.656 211.423 158.132 200.895V200.891L158.112 167.093L158.092 134.69C159.045 134.045 159.934 133.31 160.745 132.5C164.004 129.24 166.027 124.74 166.027 119.784C166.027 114.828 164.004 110.328 160.745 107.068C157.486 103.809 152.985 101.785 148.029 101.785H91.3971H91.4025ZM73.1545 255.468C73.1545 251.748 76.1692 248.735 79.8866 248.735C83.6052 248.735 86.6198 251.748 86.6198 255.468C86.6198 259.186 83.6052 262.2 79.8866 262.2C76.1692 262.2 73.1545 259.186 73.1545 255.468ZM90.4665 255.468C90.4665 254.05 90.1865 252.701 89.6811 251.468L89.7451 251.38C92.6318 246.571 117.157 251.86 117.157 251.86C121.905 252.722 135.942 258.233 138.772 259.353C135.138 259.728 132.305 262.796 132.305 266.528C132.305 268.896 133.453 270.993 135.216 272.308C135.114 272.452 135.025 272.539 134.949 272.539H128.217C122.446 272.539 110.424 277.829 110.424 277.829C97.9212 280.233 91.6691 276.867 91.6691 276.867C87.8211 274.463 79.1652 266.287 79.1652 266.287L79.3465 266.033C79.5252 266.041 79.7052 266.047 79.8866 266.047C85.7306 266.047 90.4665 261.31 90.4665 255.468ZM135.672 266.528C135.672 264.402 137.395 262.68 139.519 262.68C141.643 262.68 143.367 264.402 143.367 266.528C143.367 268.652 141.643 270.374 139.519 270.374C137.395 270.374 135.672 268.652 135.672 266.528ZM146.633 267.664C146.693 267.293 146.732 266.916 146.732 266.528C146.732 265.662 146.573 264.837 146.293 264.069C148.514 265.756 154.666 275.424 154.666 275.424C155.148 277.829 150.339 279.753 150.339 279.753C150.729 272.725 147.952 268.869 146.633 267.664M151.783 265.807L157.072 269.653C157.553 271.577 156.109 272.539 156.109 272.539C151.783 267.731 151.783 265.807 151.783 265.807M145.401 270.693C145.916 270.228 146.25 269.893 146.25 269.893C148.174 271.817 148.656 280.954 148.656 280.954C148.656 282.396 141.924 284.321 141.924 284.321C141.442 283.359 139.999 279.032 139.999 279.032C138.557 276.625 138.077 273.741 138.077 273.741C137.936 273.6 138.371 273.706 139.139 273.721C139.265 273.729 139.391 273.741 139.519 273.741C141.949 273.741 144.095 272.534 145.401 270.693M164.527 284.321L157.793 276.145C157.793 276.145 156.83 275.183 158.273 273.741C158.273 273.741 159.716 271.336 161.159 272.298L170.297 278.069C170.297 278.069 171.257 279.512 169.334 280.474L166.449 284.803C166.449 284.803 166.102 285.321 165.618 285.321C165.294 285.321 164.911 285.091 164.527 284.321ZM155.869 279.512C155.388 279.032 156.831 278.551 157.312 279.032C157.793 279.512 164.045 288.168 164.045 288.168C164.527 289.611 161.64 290.573 161.64 290.573L155.869 279.512ZM180.876 297.787C170.297 294.9 166.929 288.168 166.929 288.168C168.853 286.725 172.22 280.954 172.22 280.954C172.7 279.993 173.181 280.954 173.181 280.954C174.144 280.954 187.609 295.381 187.609 295.381C188.692 297.546 184.359 297.816 182.128 297.816C181.385 297.816 180.876 297.787 180.876 297.787M94.0745 280.714C94.5545 280.714 106.577 281.196 106.577 281.196L108.019 285.043C102.248 283.6 99.3639 289.37 99.3639 289.37C98.8826 289.37 93.5932 280.714 94.0745 280.714M151.541 282.877C151.541 281.916 153.465 281.436 154.427 282.396C155.388 283.358 159.716 292.016 159.716 292.016C160.197 293.94 155.869 294.9 155.869 294.9C155.869 292.496 151.541 282.877 151.541 282.877ZM143.367 290.092C142.885 287.688 142.885 286.725 142.885 286.725C144.328 285.282 149.137 284.803 149.137 284.803C150.099 285.283 152.021 292.016 152.021 292.016C152.502 293.94 145.77 294.9 145.77 294.9C145.708 294.921 145.645 294.932 145.584 294.932C144.245 294.932 143.367 290.092 143.367 290.092M102.008 293.217C102.008 290.695 104.053 288.648 106.577 288.648C109.1 288.648 111.145 290.695 111.145 293.217C111.145 295.74 109.1 297.787 106.577 297.787C104.053 297.787 102.008 295.74 102.008 293.217ZM165.486 309.328C165.006 303.076 163.083 293.458 163.083 293.458L165.968 291.534C169.816 299.229 171.257 310.289 171.257 310.289C170.873 310.481 170.41 310.558 169.918 310.558C167.949 310.558 165.486 309.328 165.486 309.328ZM146.732 301.633C146.732 301.633 145.771 296.824 146.732 296.824C146.732 296.824 152.021 296.344 152.984 294.9V306.924C152.984 306.924 152.577 307.156 151.924 307.156C150.7 307.156 148.613 306.339 146.732 301.633ZM154.908 310.289L155.869 298.266C155.869 298.266 159.236 296.344 161.159 295.863C161.159 295.863 163.564 312.213 163.083 315.099C163.083 315.099 162.782 315.158 162.278 315.158C160.769 315.158 157.433 314.619 154.908 310.289M114.031 295.863C114.512 295.863 118.84 301.633 118.84 301.633C120.283 303.557 119.801 307.404 119.801 307.404C118.84 312.695 115.473 311.733 115.473 311.733C114.03 309.808 106.337 300.672 106.337 300.672C106.465 300.677 106.593 300.68 106.717 300.68C111.944 300.68 113.561 295.863 114.031 295.863M119.801 346.357C119.801 346.357 110.665 338.183 114.512 334.816C118.359 331.449 122.686 339.142 123.168 339.624C123.649 340.105 139.037 349.242 140.961 350.205C140.961 350.205 139.037 352.128 132.785 353.089C132.785 353.089 126.055 348.281 119.801 346.357M138.557 346.357C133.748 343.953 128.938 339.624 128.938 339.624C126.054 336.258 132.305 336.74 132.305 336.74C135.672 337.22 139.037 342.029 139.037 342.029C140.48 343.953 151.541 347.318 151.541 347.318C151.06 347.8 143.847 349.724 143.847 349.724C143.847 349.724 143.366 348.761 138.557 346.357M102.729 346.117C102.729 346.117 101.287 342.269 107.539 343.232C107.539 343.232 110.5 344.16 115.233 348.04C116.528 349.103 116.627 349.178 121.485 350.445C123.732 351.03 130.141 352.368 130.141 353.811C130.141 353.811 124.852 355.734 115.715 354.292C115.715 354.292 111.387 353.331 109.944 353.811C109.944 353.811 102.729 348.04 102.729 346.117Z" fill="url(#paint0_linear_2599_678)"/>
<path d="M108.095 80.6748C117.379 80.6748 124.904 73.1481 124.904 63.8655C124.904 54.5815 117.379 47.0548 108.095 47.0548C98.811 47.0548 91.2856 54.5815 91.2856 63.8655C91.2856 73.1481 98.811 80.6748 108.095 80.6748Z" fill="#0096BE"/>
<path d="M62.7475 56.4375C78.0768 56.4375 90.5035 44.0108 90.5035 28.6815C90.5035 13.3535 78.0768 0.925505 62.7475 0.925505C47.4181 0.925505 34.9915 13.3535 34.9915 28.6815C34.9915 44.0108 47.4181 56.4375 62.7475 56.4375Z" fill="#0096BE"/>
<defs>
<linearGradient id="paint0_linear_2599_678" x1="119.366" y1="389.439" x2="119.366" y2="28.9466" gradientUnits="userSpaceOnUse">
<stop stop-color="#EBD76E"/>
<stop offset="0.347479" stop-color="#FAAA91"/>
<stop offset="0.7" stop-color="#A078B4"/>
<stop offset="1" stop-color="#0096BE"/>
</linearGradient>
</defs>
</svg>
